<svg xmlns="http://www.w3.org/2000/svg" viewBox="0 0 512 512">
  <defs>
    <linearGradient id="bg" x1="0" y1="0" x2="1" y2="1">
      <stop offset="0%" stop-color="#7c3aed"/>
      <stop offset="100%" stop-color="#06b6d4"/>
    </linearGradient>

    <filter id="shadow" x="-20%" y="-20%" width="140%" height="140%">
      <feDropShadow dx="0" dy="14" stdDeviation="18" flood-color="#000000" flood-opacity="0.25"/>
    </filter>
  </defs>

  <rect width="512" height="512" rx="112" fill="url(#bg)"/>

  <circle cx="372" cy="134" r="52" fill="#ffffff" opacity="0.16"/>
  <circle cx="118" cy="392" r="76" fill="#ffffff" opacity="0.08"/>

  <g filter="url(#shadow)">
    <rect x="84" y="92" width="344" height="328" rx="58" fill="#ffffff" opacity="0.16"/>
  </g>

  <g fill="#ffffff">
    <path d="M118 142h154v43h-56c-8 32-22 60-43 84 20 13 43 23 69 31l-25 39c-29-10-54-24-75-42-23 20-51 35-84 47l-22-41c29-9 54-22 74-38-15-18-28-39-37-63h47c6 12 13 23 22 34 13-15 23-32 29-51h-53v-43Zm24-70h50v42h-50V72Z"/>

    <path d="M319 202h56l98 238h-58l-18-50H296l-18 50h-57l98-238Zm-8 141h70l-35-94-35 94Z"/>
  </g>
</svg>